<svg width="134" height="52" viewBox="0 0 134 52" fill="none" xmlns="http://www.w3.org/2000/svg">
<path fill-rule="evenodd" clip-rule="evenodd" d="M46.1355 33.9701C39.2771 36.2879 34.3343 40.6208 28.6341 44.4691C19.9222 50.2802 12.3581 52.6255 7.28347 51.5051C1.44366 50.1783 -1.14148 44.1635 1.7306 33.3562L2.59145 32.9488C1.82626 37.9451 3.74184 40.596 7.28347 41.4108C11.4972 42.3275 17.911 40.596 24.4229 37.1303C26.9124 35.8034 29.3036 34.2729 31.7931 32.6433C26.1446 31.9303 23.1769 31.0109 18.4849 31.2146C16.5719 31.2146 14.7519 32.3377 13.8911 34.5812L12.7407 33.6618L14.9432 26.323C16.2823 21.4286 20.8787 22.3453 24.5186 22.7527C30.9323 23.6721 35.9112 24.2832 41.5598 24.1813C46.9213 24.2832 52.0916 23.4684 57.3575 22.6508C57.8384 22.6508 58.1253 22.9564 57.934 23.3665L55.3489 31.7266C55.2532 31.9303 55.155 32.2359 54.868 32.3377C51.9675 32.4864 49.3927 32.9626 47.0428 33.6783C46.4302 38.6553 48.4233 41.0227 51.9184 41.4135C54.9818 41.821 59.3868 40.7006 64.2702 38.5589L59.666 8.68336L74.0058 0.612305L76.4229 26.4221C77.5267 34.8813 79.0158 39.6077 79.9516 42.5945C83.806 44.2379 90.9875 38.8315 92.0681 35.6383C91.7812 34.0087 91.5899 32.2744 91.4942 30.4411L93.888 28.2995C94.3663 35.3327 96.8558 38.2892 101.165 39.0049L113.421 21.9764C116.485 17.594 122.707 17.8996 126.73 20.5505C132.856 24.5254 134.676 25.4449 133.622 30.0309L132.091 36.8633C130.463 40.9401 127.112 42.5725 122.42 44.2048L107.579 47.7724C99.8235 49.1983 95.708 46.9576 93.5054 41.4521C91.7812 48.2817 86.037 53.0742 78.4729 51.4418C76.1747 50.9215 74.5435 46.9356 73.5844 41.6338C72.6874 38.0579 71.462 26.3037 69.487 13.4456C69.337 12.4849 69.1871 11.5187 69.0294 10.547L66.6614 11.7141L68.4814 26.3257C69.1535 31.7294 69.7274 36.8275 69.3448 40.7006C68.4814 51.1005 50.4836 55.7884 46.1742 47.6348C44.6826 44.6563 44.5534 40.1335 46.1355 33.9701ZM112.558 30.1328L105.857 38.903L129.028 32.6818C121.846 26.3615 115.717 25.8523 112.558 30.1328Z" fill="#1E1A15"/>
<path d="M115.822 7.92513C117.097 7.57734 117.962 6.98574 118.786 6.09387L123.217 1.12758L122.581 0.611719L88.1605 14.2906C86.9055 14.7885 85.8557 15.4083 85.2165 16.272L81.1993 20.1026L81.8555 20.7686L115.822 7.92513Z" fill="#1E1A15"/>
<path fill-rule="evenodd" clip-rule="evenodd" d="M20.5933 10.3212L20.7888 10.0186L22.5371 13.8908L18.6271 15.6264C18.0706 15.8733 17.4756 15.9982 16.8884 15.9982C16.3669 15.9982 15.8532 15.9001 15.3578 15.7139L15.3488 15.7107C15.5507 16.5277 15.4976 17.392 15.1915 18.2054L15.1912 18.2068C14.7842 19.2627 13.9894 20.0983 12.9446 20.5615L9.03528 22.2957L7.28058 18.427V18.4263C6.80044 17.357 6.80329 16.1954 7.19604 15.184C6.86429 15.2641 6.52506 15.3033 6.18689 15.3033C5.67678 15.3033 5.16275 15.2123 4.66762 15.0264C3.59997 14.6239 2.75526 13.8376 2.28689 12.8043L0.530762 8.93172L4.44539 7.19579L4.44575 7.19544C5.52197 6.72344 6.70235 6.72556 7.72684 7.1203C7.52458 6.2959 7.57773 5.43093 7.88344 4.61782V4.61746C8.28332 3.5613 9.08558 2.72455 10.1308 2.26102L14.0408 0.526855L15.7872 4.39522C16.271 5.45986 16.271 6.62679 15.8739 7.64097C16.7019 7.44131 17.5755 7.49352 18.4034 7.79583L18.4052 7.79654C19.4725 8.20257 20.3165 8.98887 20.7849 10.0218L20.5926 10.3198L20.5933 10.3212ZM13.8981 17.7218C14.1688 17.0075 14.1463 16.2233 13.8306 15.528C13.3459 14.4644 12.2853 13.8358 11.1774 13.8358C10.7839 13.8358 10.384 13.912 10.0023 14.0848L10.0009 14.0852C8.54016 14.7293 7.88023 16.4254 8.5316 17.8636L9.72054 20.4864L12.3752 19.3096L12.3756 19.3092C13.0819 18.9999 13.6238 18.4326 13.8981 17.7218ZM8.89794 5.29159L8.88724 5.30252L9.17048 5.1071C8.89937 5.82143 8.92185 6.60597 9.23754 7.30091C9.43409 7.72775 9.72054 8.08474 10.0705 8.35708L10.0723 8.35884C10.8899 9.01674 12.0431 9.19806 13.0673 8.74793C13.3052 8.64281 13.5174 8.51617 13.7083 8.35919L13.7101 8.35813C14.7096 7.55772 15.0813 6.16785 14.5366 4.96246L13.3476 2.33969L10.693 3.5165L10.6926 3.51685C9.98594 3.82622 9.44408 4.39381 9.16977 5.10533L8.89794 5.29159ZM18.0617 14.3798L20.7067 13.2072L19.5196 10.5886L19.5192 10.5879C19.2064 9.88911 18.6321 9.35362 17.9129 9.08235C17.5798 8.95783 17.2241 8.89715 16.8813 8.89715C16.4704 8.89715 16.0658 8.9804 15.6874 9.14655C15.2654 9.33458 14.9012 9.61114 14.6183 9.9646L14.6161 9.96743C14.4264 10.1932 14.2826 10.4549 14.1699 10.7379C13.887 11.4533 13.9091 12.229 14.2241 12.9236C14.2987 13.0802 14.3761 13.2241 14.4738 13.3663L14.4749 13.3673C14.8038 13.8552 15.2778 14.2281 15.8393 14.4387H15.8397C16.5674 14.7138 17.35 14.6912 18.0613 14.378L18.0617 14.3798ZM7.37797 13.6827C8.45169 13.2107 9.08736 12.1648 9.08736 11.0709C9.08736 10.6828 9.01102 10.2821 8.83659 9.90569L8.83588 9.90428C8.18344 8.45691 6.46441 7.80606 5.00758 8.45162L2.35752 9.62631L3.53754 12.2438C3.85716 12.9426 4.42505 13.4788 5.15098 13.7504C5.87547 14.0189 6.67131 13.997 7.37725 13.6831L7.37797 13.6827Z" fill="#1E1A15" stroke="#1E1A15" stroke-width="0.8"/>
</svg>
